name Walk6.mot
datacolumns 19
datarows 30
range 2.09100000 2.12000000
endheader

                time	   L_ground_force_vx	   L_ground_force_vy	   L_ground_force_vz	   L_ground_force_px	   L_ground_force_py	   L_ground_force_pz	   R_ground_force_vx	   R_ground_force_vy	   R_ground_force_vz	   R_ground_force_px	   R_ground_force_py	   R_ground_force_pz	   L_ground_torque_x	   L_ground_torque_y	   L_ground_torque_z	   R_ground_torque_x	   R_ground_torque_y	   R_ground_torque_z	
          2.09100000	        -14.57421002	         95.98089239	         -8.02873664	         -0.09315306	          0.00000000	         -0.02084617	          0.00000000	         -0.00000000	         -0.00000000	         -0.00000000	          0.00000000	         -0.00000000	          0.00000000	          0.13027730	          0.00000000	          0.00000000	         -0.00000000	          0.00000000	
          2.09200000	        -15.87405591	        104.75457611	         -8.69980376	         -0.09873100	          0.00000000	         -0.02210558	          0.00000000	         -0.00000000	         -0.00000000	         -0.00000000	          0.00000000	         -0.00000000	          0.00000000	          0.14686908	          0.00000000	          0.00000000	         -0.00000000	          0.00000000	
          2.09300000	        -17.22913162	        113.91092782	         -9.39730042	         -0.10441952	          0.00000000	         -0.02339073	          0.00000000	         -0.00000000	         -0.00000000	         -0.00000000	          0.00000000	         -0.00000000	          0.00000000	          0.16439609	          0.00000000	          0.00000000	         -0.00000000	          0.00000000	
          2.09400000	        -18.63897304	        123.44769205	        -10.12080198	         -0.11020541	          0.00000000	         -0.02469870	          0.00000000	         -0.00000000	         -0.00000000	         -0.00000000	          0.00000000	         -0.00000000	          0.00000000	          0.18287286	          0.00000000	          0.00000000	         -0.00000000	          0.00000000	
          2.09500000	        -20.10284676	        133.36083267	        -10.86973696	         -0.11607381	          0.00000000	         -0.02602621	          0.00000000	         -0.00000000	         -0.00000000	         -0.00000000	          0.00000000	         -0.00000000	          0.00000000	          0.20231133	          0.00000000	          0.00000000	         -0.00000000	          0.00000000	
          2.09600000	        -21.61972806	        143.64438410	        -11.64337572	         -0.12200815	          0.00000000	         -0.02736959	          0.00000000	         -0.00000000	         -0.00000000	         -0.00000000	          0.00000000	         -0.00000000	          0.00000000	          0.22272060	          0.00000000	          0.00000000	         -0.00000000	          0.00000000	
          2.09700000	        -23.18827809	        154.29029665	        -12.44081880	         -0.12799007	          0.00000000	         -0.02872477	          0.00000000	         -0.00000000	         -0.00000000	         -0.00000000	          0.00000000	         -0.00000000	          0.00000000	          0.24410658	          0.00000000	          0.00000000	         -0.00000000	          0.00000000	
          2.09800000	        -24.80682021	        165.28827608	        -13.26098486	         -0.13399926	          0.00000000	         -0.03008725	          0.00000000	         -0.00000000	         -0.00000000	         -0.00000000	          0.00000000	         -0.00000000	          0.00000000	          0.26647172	          0.00000000	          0.00000000	         -0.00000000	          0.00000000	
          2.09900000	        -26.47332831	        176.62563501	        -14.10260283	         -0.14001372	          0.00000000	         -0.03145213	          0.00000000	         -0.00000000	         -0.00000000	         -0.00000000	          0.00000000	         -0.00000000	          0.00000000	          0.28981461	          0.00000000	          0.00000000	         -0.00000000	          0.00000000	
          2.10000000	        -28.18545836	        188.28719974	        -14.96421916	         -0.14601068	          0.00000000	         -0.03281435	          0.00000000	         -0.00000000	         -0.00000000	         -0.00000000	          0.00000000	         -0.00000000	          0.00000000	          0.31412957	          0.00000000	          0.00000000	         -0.00000000	          0.00000000	
          2.10100000	        -29.94062742	        200.25528367	        -15.84422006	         -0.15196812	          0.00000000	         -0.03416897	          0.00000000	         -0.00000000	         -0.00000000	         -0.00000000	          0.00000000	         -0.00000000	          0.00000000	          0.33940612	          0.00000000	          0.00000000	         -0.00000000	          0.00000000	
          2.10200000	        -31.73610259	        212.50968625	        -16.74085278	         -0.15786577	          0.00000000	         -0.03551141	          0.00000000	         -0.00000000	         -0.00000000	         -0.00000000	          0.00000000	         -0.00000000	          0.00000000	          0.36562840	          0.00000000	          0.00000000	         -0.00000000	          0.00000000	
          2.10300000	        -33.56907918	        225.02770435	        -17.65223693	         -0.16368528	          0.00000000	         -0.03683752	          0.00000000	         -0.00000000	         -0.00000000	         -0.00000000	          0.00000000	         -0.00000000	          0.00000000	          0.39277466	          0.00000000	          0.00000000	         -0.00000000	          0.00000000	
          2.10400000	        -35.43675806	        237.78418811	        -18.57636848	         -0.16941015	          0.00000000	         -0.03814356	          0.00000000	         -0.00000000	         -0.00000000	         -0.00000000	          0.00000000	         -0.00000000	          0.00000000	          0.42081661	          0.00000000	          0.00000000	         -0.00000000	          0.00000000	
          2.10500000	        -37.33642585	        250.75166950	        -19.51111777	         -0.17502561	          0.00000000	         -0.03942619	          0.00000000	         -0.00000000	         -0.00000000	         -0.00000000	          0.00000000	         -0.00000000	          0.00000000	          0.44971895	          0.00000000	          0.00000000	         -0.00000000	          0.00000000	
          2.10600000	        -39.26553127	        263.90057705	        -20.45422008	         -0.18051857	          0.00000000	         -0.04068246	          0.00000000	         -0.00000000	         -0.00000000	         -0.00000000	          0.00000000	         -0.00000000	          0.00000000	          0.47943913	          0.00000000	          0.00000000	         -0.00000000	          0.00000000	
          2.10700000	        -41.22174863	        277.19954302	        -21.40325797	         -0.18587749	          0.00000000	         -0.04190983	          0.00000000	         -0.00000000	         -0.00000000	         -0.00000000	          0.00000000	         -0.00000000	          0.00000000	          0.50992753	          0.00000000	          0.00000000	         -0.00000000	          0.00000000	
          2.10800000	        -43.20301949	        290.61579786	        -22.35563605	         -0.19109232	          0.00000000	         -0.04310611	          0.00000000	         -0.00000000	         -0.00000000	         -0.00000000	          0.00000000	         -0.00000000	          0.00000000	          0.54112799	          0.00000000	          0.00000000	         -0.00000000	          0.00000000	
          2.10900000	        -45.20756515	        304.11563509	        -23.30855067	         -0.19615439	          0.00000000	         -0.04426944	          0.00000000	         -0.00000000	         -0.00000000	         -0.00000000	          0.00000000	         -0.00000000	          0.00000000	          0.57297873	          0.00000000	          0.00000000	         -0.00000000	          0.00000000	
          2.11000000	        -47.23386646	        317.66491864	        -24.25895922	         -0.20105637	          0.00000000	         -0.04539832	          0.00000000	         -0.00000000	         -0.00000000	         -0.00000000	          0.00000000	         -0.00000000	          0.00000000	          0.60541340	          0.00000000	          0.00000000	         -0.00000000	          0.00000000	
          2.11100000	        -49.28061255	        331.22959738	        -25.20355529	         -0.20579214	          0.00000000	         -0.04649153	          0.00000000	         -0.00000000	         -0.00000000	         -0.00000000	          0.00000000	         -0.00000000	          0.00000000	          0.63836208	          0.00000000	          0.00000000	         -0.00000000	          0.00000000	
          2.11200000	        -51.34662362	        344.77619011	        -26.13875654	         -0.21035674	          0.00000000	         -0.04754815	          0.00000000	         -0.00000000	         -0.00000000	         -0.00000000	          0.00000000	         -0.00000000	          0.00000000	          0.67175235	          0.00000000	          0.00000000	         -0.00000000	          0.00000000	
          2.11300000	        -53.43075629	        358.27220763	        -27.06071125	         -0.21474630	          0.00000000	         -0.04856753	          0.00000000	         -0.00000000	         -0.00000000	         -0.00000000	          0.00000000	         -0.00000000	          0.00000000	          0.70550997	          0.00000000	          0.00000000	         -0.00000000	          0.00000000	
          2.11400000	        -55.53180053	        371.68648845	        -27.96532709	         -0.21895797	          0.00000000	         -0.04954923	          0.00000000	         -0.00000000	         -0.00000000	         -0.00000000	          0.00000000	         -0.00000000	          0.00000000	          0.73955936	          0.00000000	          0.00000000	         -0.00000000	          0.00000000	
          2.11500000	        -57.64837687	        384.98943615	        -28.84832254	         -0.22298981	          0.00000000	         -0.05049305	          0.00000000	         -0.00000000	         -0.00000000	         -0.00000000	          0.00000000	         -0.00000000	          0.00000000	          0.77382371	          0.00000000	          0.00000000	         -0.00000000	          0.00000000	
          2.11600000	        -59.77884066	        398.15315955	        -29.70529769	         -0.22684076	          0.00000000	         -0.05139897	          0.00000000	         -0.00000000	         -0.00000000	         -0.00000000	          0.00000000	         -0.00000000	          0.00000000	          0.80822465	          0.00000000	          0.00000000	         -0.00000000	          0.00000000	
          2.11700000	        -61.92119810	        411.15152738	        -30.53181861	         -0.23051056	          0.00000000	         -0.05226716	          0.00000000	         -0.00000000	         -0.00000000	         -0.00000000	          0.00000000	         -0.00000000	          0.00000000	          0.84268157	          0.00000000	          0.00000000	         -0.00000000	          0.00000000	
          2.11800000	        -64.07303691	        423.96015683	        -31.32350760	         -0.23399968	          0.00000000	         -0.05309792	          0.00000000	         -0.00000000	         -0.00000000	         -0.00000000	          0.00000000	         -0.00000000	          0.00000000	          0.87711078	          0.00000000	          0.00000000	         -0.00000000	          0.00000000	
          2.11900000	        -66.23147287	        436.55635803	        -32.07613168	         -0.23730925	          0.00000000	         -0.05389172	          0.00000000	         -0.00000000	         -0.00000000	         -0.00000000	          0.00000000	         -0.00000000	          0.00000000	          0.91142472	          0.00000000	          0.00000000	         -0.00000000	          0.00000000	
          2.12000000	        -68.39311290	        448.91905649	        -32.78568229	         -0.24044102	          0.00000000	         -0.05464913	          0.00000000	         -0.00000000	         -0.00000000	         -0.00000000	          0.00000000	         -0.00000000	          0.00000000	          0.94553128	          0.00000000	          0.00000000	         -0.00000000	          0.00000000	
